<mxfile host="app.diagrams.net" modified="2023-11-07T15:20:04.425Z" agent="Mozilla/5.0 (X11; Linux x86_64) AppleWebKit/537.36 (KHTML, like Gecko) Chrome/119.0.0.0 Safari/537.36" version="22.0.8" etag="9ZzJYbpu8f8C3Vp5DCmp" type="github">
  <diagram name="PÃ¡gina-1" id="CFYT7b1u8XLgfosFSaB2">
    <mxGraphModel>
      <root>
        <mxCell id="0" />
        <mxCell id="1" parent="0" />
      </root>
    </mxGraphModel>
  </diagram>
</mxfile>
